<svg width="1054" height="286" viewBox="0 0 1054 286" fill="none" xmlns="http://www.w3.org/2000/svg">
<path d="M413.251 17.2307C402.13 6.10906 387.405 0 371.741 0C339.316 0 313 26.3159 313 58.7409V163.065L313 202.225V280.547H352.161V202.225H391.321L391.321 280.547H430.482L430.482 202.225V163.065V58.7409C430.482 43.0767 424.373 28.3523 413.251 17.2307ZM352.161 163.065V58.7409C352.161 47.9326 360.933 39.1606 371.741 39.1606C376.91 39.1606 381.923 41.197 385.526 44.9564C389.285 48.7158 391.321 53.5717 391.321 58.7409V163.065H352.161Z" fill="#A4FFB8"/>
<path d="M880.251 17.2307C869.13 6.10906 854.405 0 838.741 0C806.316 0 780 26.3159 780 58.7409V163.065V202.225V280.547H819.161V202.225H858.321V280.547H897.482V202.225V163.065V58.7409C897.482 43.0767 891.373 28.3523 880.251 17.2307ZM819.161 163.065V58.7409C819.161 47.9326 827.933 39.1606 838.741 39.1606C843.91 39.1606 848.923 41.197 852.525 44.9564C856.285 48.7158 858.321 53.5717 858.321 58.7409V163.065H819.161Z" fill="#A4FFB8"/>
<path d="M527.741 285.787C512.077 285.787 497.353 279.678 486.231 268.557C475.109 257.435 469 242.711 469 227.047L469 5.39746L508.161 5.39746L508.161 227.203C508.161 232.372 510.197 237.385 513.957 241.144C517.716 244.747 522.572 246.783 527.741 246.783C538.55 246.783 547.321 238.011 547.321 227.203V5.39746L586.482 5.39746V227.203C586.482 259.471 560.01 285.787 527.741 285.787Z" fill="#A4FFB8"/>
<path d="M274.124 280.469H234.964L234.964 58.82C234.964 53.6508 232.927 48.6383 229.168 45.0355C225.409 41.2761 220.553 39.2397 215.383 39.2397C204.575 39.2397 195.803 48.0117 195.803 58.82L195.803 213.739C195.803 246.164 169.487 272.48 137.062 272.48C121.398 272.48 106.674 266.371 95.5519 255.25C84.4303 244.128 78.3213 229.404 78.3213 213.739L78.3213 58.82C78.3213 53.6508 76.2849 48.6383 72.5255 45.0355C68.7661 41.2761 63.9101 39.2397 58.7409 39.2397C47.9326 39.2397 39.1606 48.0117 39.1606 58.82L39.1606 280.469H0L0 58.82C0 26.395 26.3159 0.0791016 58.7409 0.0791016C74.4052 0.0791016 89.1296 6.18816 100.251 17.3098C111.373 28.4314 117.482 43.1558 117.482 58.82L117.482 213.739C117.482 218.909 119.518 223.921 123.278 227.524C127.037 231.127 131.893 233.32 137.062 233.32C147.871 233.32 156.643 224.548 156.643 213.739L156.643 58.82C156.643 26.395 182.958 0.0791016 215.383 0.0791016C231.048 0.0791016 245.772 6.18816 256.894 17.3098C268.015 28.4314 274.124 43.1558 274.124 58.82L274.124 280.469Z" fill="#A4FFB8"/>
<path d="M994.741 285.787C979.077 285.787 964.352 279.678 953.231 268.557C942.109 257.435 936 242.711 936 227.047V5.39746L975.161 5.39746V227.203C975.161 232.372 977.197 237.385 980.956 241.144C984.716 244.747 989.572 246.783 994.741 246.783C1005.55 246.783 1014.32 238.011 1014.32 227.203V5.39746L1053.48 5.39746V227.203C1053.48 259.471 1027.17 285.787 994.741 285.787Z" fill="#A4FFB8"/>
<path d="M724.98 22.1754C718.669 16.0746 711.095 11.499 702.891 8.75368C696.579 6.61842 689.953 5.55078 683.168 5.55078C676.226 5.55078 663.445 5.55078 663.445 5.55078L624 5.55078V83.4881V205.503V283.441H663.445C663.445 283.441 676.226 283.441 683.168 283.441C689.953 283.441 696.579 282.373 702.891 280.238C711.095 277.492 718.669 272.917 724.98 266.816C736.182 255.987 742.336 241.65 742.336 226.398V205.656V83.6406V62.5929C742.336 47.341 736.182 33.0042 724.98 22.1754ZM702.891 205.351V225.483C702.891 230.822 700.839 236.16 696.895 239.82C688.375 247.751 679.697 245.158 663.445 245.158V205.351V83.3355V43.528C679.697 43.528 688.375 40.9352 696.895 48.8662C700.839 52.5267 702.891 57.8648 702.891 63.203V83.3355V205.351Z" fill="#A4FFB8"/>
</svg>
