<svg width="482" height="482" viewBox="0 0 482 482" fill="none" xmlns="http://www.w3.org/2000/svg">
<path d="M381.079 482.001H0V414.72H381.079C399.648 414.72 414.719 399.649 414.719 381.08C414.719 372.198 411.221 363.586 404.762 357.128C400.186 352.552 392.651 347.439 381.348 347.439H0V280.158H381.348C407.991 280.158 433.289 290.654 452.396 309.762C471.504 328.87 482 354.167 482 381.08C482 436.519 436.518 482.001 381.079 482.001Z" fill="#A4FFB8"/>
<path d="M470.966 242.749H403.685V100.921C403.685 92.0402 400.187 83.4283 393.728 77.2384C387.269 70.7795 378.926 67.2809 370.045 67.2809C351.475 67.2809 336.405 82.3518 336.405 100.921V128.103C336.405 183.811 291.192 229.024 235.483 229.024C208.571 229.024 183.273 218.528 164.166 199.42C145.058 180.313 134.562 155.015 134.562 128.103V100.921C134.562 92.0402 131.063 83.4283 124.604 77.2384C118.415 70.7795 109.803 67.2809 100.922 67.2809C82.352 67.2809 67.2811 82.3518 67.2811 100.921V229.024H0.000244141V100.921C0.000244141 45.2127 45.213 0 100.922 0C127.834 0 153.131 10.4958 172.239 29.6036C191.347 48.7113 201.843 74.0089 201.843 100.921V128.103C201.843 136.984 205.341 145.596 211.8 151.786C218.259 157.975 226.602 161.743 235.483 161.743C254.053 161.743 269.124 146.672 269.124 128.103V100.921C269.124 45.2127 314.336 0 370.045 0C396.957 0 422.255 10.4958 441.363 29.6036C460.47 48.7113 470.966 74.0089 470.966 100.921V242.749Z" fill="#A4FFB8"/>
</svg>
